<svg width="76" height="88" viewBox="0 0 76 88" fill="none" xmlns="http://www.w3.org/2000/svg">
<g filter="url(#filter0_d_195_1501)">
<path d="M61.3333 21.0476H53.6667C53.6667 10.5333 45.08 2 34.5 2C23.92 2 15.3333 10.5333 15.3333 21.0476H7.66667C3.43083 21.0476 0.0383333 24.4571 0.0383333 28.6667L0 74.381C0 78.5905 3.43083 82 7.66667 82H61.3333C65.5692 82 69 78.5905 69 74.381V28.6667C69 24.4571 65.5692 21.0476 61.3333 21.0476ZM34.5 9.61905C40.8442 9.61905 46 14.7429 46 21.0476H23C23 14.7429 28.1558 9.61905 34.5 9.61905ZM34.5 47.7143C23.92 47.7143 15.3333 39.181 15.3333 28.6667H23C23 34.9714 28.1558 40.0952 34.5 40.0952C40.8442 40.0952 46 34.9714 46 28.6667H53.6667C53.6667 39.181 45.08 47.7143 34.5 47.7143Z" fill="white"/>
</g>
<defs>
<filter id="filter0_d_195_1501" x="0" y="0.982" width="75.113" height="86.112" filterUnits="userSpaceOnUse" color-interpolation-filters="sRGB">
<feFlood flood-opacity="0" result="BackgroundImageFix"/>
<feColorMatrix in="SourceAlpha" type="matrix" values="0 0 0 0 0 0 0 0 0 0 0 0 0 0 0 0 0 0 127 0" result="hardAlpha"/>
<feOffset dx="3.057" dy="2.038"/>
<feGaussianBlur stdDeviation="1.528"/>
<feColorMatrix type="matrix" values="0 0 0 0 0 0 0 0 0 0 0 0 0 0 0 0 0 0 0.25 0"/>
<feBlend mode="normal" in2="BackgroundImageFix" result="effect1_dropShadow_195_1501"/>
<feBlend mode="normal" in="SourceGraphic" in2="effect1_dropShadow_195_1501" result="shape"/>
</filter>
</defs>
</svg>
