<svg width="86" height="51" viewBox="0 0 86 51" fill="none" xmlns="http://www.w3.org/2000/svg">
<g filter="url(#filter0_d_195_1647)">
<path d="M34.2333 26.1875V20.8125C34.2333 20.4206 34.1099 20.0986 33.863 19.8467C33.6161 19.5947 33.3007 19.4687 32.9167 19.4687H25.0167V11.4062C25.0167 11.0143 24.8932 10.6924 24.6464 10.4404C24.3995 10.1885 24.084 10.0625 23.7 10.0625H18.4333C18.0493 10.0625 17.7339 10.1885 17.487 10.4404C17.2401 10.6924 17.1167 11.0143 17.1167 11.4062V19.4687H9.21668C8.83264 19.4687 8.51719 19.5947 8.27031 19.8467C8.02344 20.0986 7.9 20.4206 7.9 20.8125V26.1875C7.9 26.5794 8.02344 26.9013 8.27031 27.1533C8.51719 27.4053 8.83264 27.5312 9.21668 27.5312H17.1167V35.5937C17.1167 35.9857 17.2401 36.3076 17.487 36.5596C17.7339 36.8115 18.0493 36.9375 18.4333 36.9375H23.7C24.084 36.9375 24.3995 36.8115 24.6464 36.5596C24.8932 36.3076 25.0167 35.9857 25.0167 35.5937V27.5312H32.9167C33.3007 27.5312 33.6161 27.4053 33.863 27.1533C34.1099 26.9013 34.2333 26.5794 34.2333 26.1875ZM57.9333 28.875C57.9333 27.3913 57.419 26.1245 56.3904 25.0747C55.3617 24.0249 54.1205 23.5 52.6667 23.5C51.2129 23.5 49.9716 24.0249 48.943 25.0747C47.9143 26.1245 47.4 27.3913 47.4 28.875C47.4 30.3587 47.9143 31.6255 48.943 32.6753C49.9716 33.7251 51.2129 34.25 52.6667 34.25C54.1205 34.25 55.3617 33.7251 56.3904 32.6753C57.419 31.6255 57.9333 30.3587 57.9333 28.875ZM68.4667 18.125C68.4667 16.6413 67.9524 15.3745 66.9237 14.3247C65.8951 13.2749 64.6538 12.75 63.2 12.75C61.7462 12.75 60.5049 13.2749 59.4763 14.3247C58.4476 15.3745 57.9333 16.6413 57.9333 18.125C57.9333 19.6087 58.4476 20.8755 59.4763 21.9253C60.5049 22.9751 61.7462 23.5 63.2 23.5C64.6538 23.5 65.8951 22.9751 66.9237 21.9253C67.9524 20.8755 68.4667 19.6087 68.4667 18.125ZM79 23.5C79 29.4349 76.9427 34.5019 72.8281 38.7012C68.7135 42.9004 63.7486 45 57.9333 45C52.6667 45 48.0309 43.2083 44.0261 39.625H34.9739C30.9691 43.2083 26.3333 45 21.0667 45C15.2514 45 10.2865 42.9004 6.17188 38.7012C2.05729 34.5019 0 29.4349 0 23.5C0 17.5651 2.05729 12.4981 6.17188 8.29883C10.2865 4.09961 15.2514 2 21.0667 2H57.9333C63.7486 2 68.7135 4.09961 72.8281 8.29883C76.9427 12.4981 79 17.5651 79 23.5Z" fill="#95C180"/>
</g>
<defs>
<filter id="filter0_d_195_1647" x="0" y="0.982" width="85.113" height="49.112" filterUnits="userSpaceOnUse" color-interpolation-filters="sRGB">
<feFlood flood-opacity="0" result="BackgroundImageFix"/>
<feColorMatrix in="SourceAlpha" type="matrix" values="0 0 0 0 0 0 0 0 0 0 0 0 0 0 0 0 0 0 127 0" result="hardAlpha"/>
<feOffset dx="3.057" dy="2.038"/>
<feGaussianBlur stdDeviation="1.528"/>
<feColorMatrix type="matrix" values="0 0 0 0 0 0 0 0 0 0 0 0 0 0 0 0 0 0 0.25 0"/>
<feBlend mode="normal" in2="BackgroundImageFix" result="effect1_dropShadow_195_1647"/>
<feBlend mode="normal" in="SourceGraphic" in2="effect1_dropShadow_195_1647" result="shape"/>
</filter>
</defs>
</svg>
