<svg width="66" height="67" viewBox="0 0 66 67" fill="none" xmlns="http://www.w3.org/2000/svg">
<g filter="url(#filter0_d_195_1567)">
<path d="M1.07039 16.4069C-0.379978 15.4207 -0.353727 13.8502 1.13273 12.9164L17.7693 2.42997C19.2525 1.4962 20.4666 2.13458 20.4666 3.85113V26.4503C20.4666 28.1685 19.2804 28.7691 17.83 27.7812L1.07039 16.4069Z" fill="#5B5B70"/>
<path d="M59.0653 20.0501C59.0653 20.9206 58.7196 21.7554 58.1042 22.3709C57.4889 22.9864 56.6542 23.3322 55.784 23.3322H16.4075C15.5372 23.3322 14.7026 22.9864 14.0872 22.3709C13.4719 21.7554 13.1261 20.9206 13.1261 20.0501V10.2037C13.1261 9.33321 13.4719 8.49839 14.0872 7.88287C14.7026 7.26735 15.5372 6.92156 16.4075 6.92156H55.784C56.6542 6.92156 57.4889 7.26735 58.1042 7.88287C58.7196 8.49839 59.0653 9.33321 59.0653 10.2037V20.0501ZM3.76932 57.5239H6.70286C8.04494 57.5239 9.0392 56.7526 9.0392 55.3609C9.0392 54.1925 8.14502 53.3949 6.40426 53.3949H3.76932V57.5239ZM3.76932 50.1128H5.70861C6.92599 50.1128 7.72173 49.3924 7.72173 48.1501C7.72173 46.98 6.80294 46.3843 5.70861 46.3843H3.76932V50.1128ZM0.0400391 44.9681C0.0400391 43.7734 0.860381 43.1022 2.00394 43.1022H6.77669C9.36241 43.1022 11.451 44.8417 11.451 47.4789C11.451 49.2184 10.7307 50.3869 9.13928 51.1319V51.1828C11.2525 51.4815 12.9178 53.2472 12.9178 55.4102C12.9178 58.9171 10.5814 60.806 7.15077 60.806H2.02855C0.884992 60.806 0.0400391 60.0856 0.0400391 58.9171V44.9681ZM19.1671 53.8938H23.8907L21.5773 46.6813H21.5281L19.1671 53.8938ZM18.8915 44.8663C19.3148 43.7241 20.2861 42.8035 21.5511 42.8035C22.8718 42.8035 23.7906 43.6733 24.2106 44.8663L29.0851 58.3936C29.236 58.7908 29.2836 59.1387 29.2836 59.3143C29.2836 60.2841 28.4895 60.9553 27.5691 60.9553C26.524 60.9553 26.0022 60.4089 25.7529 59.6622L25.0096 57.3253H18.0974L17.3509 59.6376C17.1032 60.4089 16.5814 60.9553 15.5626 60.9553C14.5667 60.9553 13.7217 60.2103 13.7217 59.2142C13.7217 58.817 13.8464 58.5183 13.8973 58.3936L18.8915 44.8663ZM37.8349 42.8035C39.6495 42.8035 43.1802 43.3992 43.1802 45.5867C43.1802 46.4828 42.5584 47.2541 41.638 47.2541C40.6191 47.2541 39.9218 46.3843 37.8349 46.3843C34.752 46.3843 33.1605 48.9936 33.1605 52.0279C33.1605 54.9868 34.7783 57.5239 37.8349 57.5239C39.9218 57.5239 40.7684 56.4785 41.7873 56.4785C42.9062 56.4785 43.428 57.5977 43.428 58.1688C43.428 60.5566 39.6741 61.103 37.8349 61.103C32.7881 61.103 29.2836 57.1005 29.2836 51.9524C29.2836 46.7814 32.7635 42.8035 37.8349 42.8035ZM45.1704 44.7925C45.1704 43.7734 45.9169 42.9528 47.0358 42.9528C48.1039 42.9528 48.8996 43.6486 48.8996 44.7925V50.162L55.0145 43.6486C55.2885 43.35 55.761 42.9528 56.4566 42.9528C57.4017 42.9528 58.2958 43.6733 58.2958 44.7432C58.2958 45.3882 57.8988 45.9117 57.0785 46.7322L52.3812 51.3567L58.1236 57.3483C58.7191 57.9473 59.1671 58.4937 59.1671 59.2404C59.1671 60.4089 58.2466 60.9553 57.2278 60.9553C56.5059 60.9553 56.035 60.5319 55.3377 59.7869L48.8996 52.8238V59.1649C48.8996 60.1348 48.1531 60.9553 47.0358 60.9553C45.9661 60.9553 45.1704 60.2595 45.1704 59.1649V44.7925Z" fill="#5B5B70"/>
</g>
<defs>
<filter id="filter0_d_195_1567" x="0" y="0.982061" width="65.28" height="65.215" filterUnits="userSpaceOnUse" color-interpolation-filters="sRGB">
<feFlood flood-opacity="0" result="BackgroundImageFix"/>
<feColorMatrix in="SourceAlpha" type="matrix" values="0 0 0 0 0 0 0 0 0 0 0 0 0 0 0 0 0 0 127 0" result="hardAlpha"/>
<feOffset dx="3.057" dy="2.038"/>
<feGaussianBlur stdDeviation="1.528"/>
<feColorMatrix type="matrix" values="0 0 0 0 0 0 0 0 0 0 0 0 0 0 0 0 0 0 0.25 0"/>
<feBlend mode="normal" in2="BackgroundImageFix" result="effect1_dropShadow_195_1567"/>
<feBlend mode="normal" in="SourceGraphic" in2="effect1_dropShadow_195_1567" result="shape"/>
</filter>
</defs>
</svg>
