<svg width="84" height="88" viewBox="0 0 84 88" fill="none" xmlns="http://www.w3.org/2000/svg">
<g filter="url(#filter0_d_195_1499)">
<path d="M26.9246 77.1283V64.8609C26.9245 61.7523 29.4856 59.2267 32.6579 59.2072H44.3058C47.4923 59.2072 50.0754 61.7384 50.0754 64.8609V77.0928C50.0753 79.789 52.2952 81.9802 55.0467 81.9999H62.9934C66.7048 82.0092 70.2676 80.5711 72.8954 78.0027C75.5232 75.4344 77 71.9469 77 68.31V33.4633C77 30.5255 75.671 27.7388 73.3713 25.854L46.3742 4.69707C41.655 0.996491 34.9149 1.11603 30.3355 4.98153L3.91894 25.854C1.51058 27.6832 0.071133 30.4782 0 33.4633V68.2744C0 75.8547 6.27097 81.9999 14.0066 81.9999H21.7719C23.0966 82.0092 24.3704 81.5002 25.3106 80.5856C26.2508 79.671 26.7795 78.4265 26.7795 77.1283H26.9246Z" fill="white"/>
</g>
<defs>
<filter id="filter0_d_195_1499" x="0" y="0.982" width="83.113" height="86.112" filterUnits="userSpaceOnUse" color-interpolation-filters="sRGB">
<feFlood flood-opacity="0" result="BackgroundImageFix"/>
<feColorMatrix in="SourceAlpha" type="matrix" values="0 0 0 0 0 0 0 0 0 0 0 0 0 0 0 0 0 0 127 0" result="hardAlpha"/>
<feOffset dx="3.057" dy="2.038"/>
<feGaussianBlur stdDeviation="1.528"/>
<feColorMatrix type="matrix" values="0 0 0 0 0 0 0 0 0 0 0 0 0 0 0 0 0 0 0.25 0"/>
<feBlend mode="normal" in2="BackgroundImageFix" result="effect1_dropShadow_195_1499"/>
<feBlend mode="normal" in="SourceGraphic" in2="effect1_dropShadow_195_1499" result="shape"/>
</filter>
</defs>
</svg>
