<svg width="60" height="64" viewBox="0 0 60 64" fill="none" xmlns="http://www.w3.org/2000/svg">
<g filter="url(#filter0_d_195_1563)">
<path d="M18.5325 54.5898V46.0026C18.5325 43.8266 20.2953 42.0587 22.4788 42.045H30.4962C32.6895 42.045 34.4675 43.8169 34.4675 46.0026V54.5649C34.4674 56.4523 35.9954 57.9861 37.8893 57.9999H43.3591C45.9137 58.0064 48.366 56.9997 50.1747 55.2019C51.9835 53.404 53 50.9628 53 48.417V24.0243C53 21.9679 52.0852 20.0172 50.5024 18.6978L31.9199 3.88795C28.6716 1.29754 24.0324 1.38122 20.8803 4.08707L2.69746 18.6978C1.03975 19.9783 0.0489617 21.9347 0 24.0243V48.3921C0 53.6983 4.31638 57.9999 9.6409 57.9999H14.9859C15.8977 58.0065 16.7745 57.6501 17.4216 57.0099C18.0687 56.3697 18.4326 55.4985 18.4326 54.5898H18.5325Z" fill="white"/>
</g>
<defs>
<filter id="filter0_d_195_1563" x="0" y="0.982" width="59.113" height="62.112" filterUnits="userSpaceOnUse" color-interpolation-filters="sRGB">
<feFlood flood-opacity="0" result="BackgroundImageFix"/>
<feColorMatrix in="SourceAlpha" type="matrix" values="0 0 0 0 0 0 0 0 0 0 0 0 0 0 0 0 0 0 127 0" result="hardAlpha"/>
<feOffset dx="3.057" dy="2.038"/>
<feGaussianBlur stdDeviation="1.528"/>
<feColorMatrix type="matrix" values="0 0 0 0 0 0 0 0 0 0 0 0 0 0 0 0 0 0 0.25 0"/>
<feBlend mode="normal" in2="BackgroundImageFix" result="effect1_dropShadow_195_1563"/>
<feBlend mode="normal" in="SourceGraphic" in2="effect1_dropShadow_195_1563" result="shape"/>
</filter>
</defs>
</svg>
