<svg width="32" height="33" viewBox="0 0 32 33" fill="none" xmlns="http://www.w3.org/2000/svg">
<g filter="url(#filter0_d_195_1639)">
<path d="M19.175 6.325C18.8783 6.325 18.5883 6.41297 18.3416 6.5778C18.095 6.74262 17.9027 6.97689 17.7892 7.25097C17.6756 7.52506 17.6459 7.82666 17.7038 8.11764C17.7617 8.40861 17.9046 8.67588 18.1143 8.88566C18.3241 9.09544 18.5914 9.2383 18.8824 9.29618C19.1733 9.35406 19.4749 9.32435 19.749 9.21082C20.0231 9.09729 20.2574 8.90503 20.4222 8.65836C20.587 8.41168 20.675 8.12167 20.675 7.825C20.675 7.42718 20.517 7.04564 20.2357 6.76434C19.9544 6.48304 19.5728 6.325 19.175 6.325ZM24.925 9.35C24.9007 8.31287 24.7064 7.28675 24.35 6.3125C24.0322 5.47892 23.5375 4.7241 22.9 4.1C22.281 3.45928 21.5244 2.96772 20.6875 2.6625C19.7158 2.2952 18.6886 2.09651 17.65 2.075C16.325 2 15.9 2 12.5 2C9.1 2 8.675 2 7.35 2.075C6.31144 2.09651 5.28418 2.2952 4.3125 2.6625C3.4771 2.97081 2.72117 3.46195 2.1 4.1C1.45928 4.71897 0.967721 5.47555 0.6625 6.3125C0.295201 7.28418 0.0965125 8.31144 0.0749999 9.35C-6.98492e-08 10.675 0 11.1 0 14.5C0 17.9 -6.98492e-08 18.325 0.0749999 19.65C0.0965125 20.6886 0.295201 21.7158 0.6625 22.6875C0.967721 23.5244 1.45928 24.281 2.1 24.9C2.72117 25.538 3.4771 26.0292 4.3125 26.3375C5.28418 26.7048 6.31144 26.9035 7.35 26.925C8.675 27 9.1 27 12.5 27C15.9 27 16.325 27 17.65 26.925C18.6886 26.9035 19.7158 26.7048 20.6875 26.3375C21.5244 26.0323 22.281 25.5407 22.9 24.9C23.5403 24.2782 24.0354 23.5227 24.35 22.6875C24.7064 21.7132 24.9007 20.6871 24.925 19.65C24.925 18.325 25 17.9 25 14.5C25 11.1 25 10.675 24.925 9.35ZM22.675 19.5C22.6659 20.2935 22.5222 21.0796 22.25 21.825C22.0504 22.369 21.7298 22.8605 21.3125 23.2625C20.9071 23.6756 20.4165 23.9955 19.875 24.2C19.1296 24.4722 18.3435 24.6159 17.55 24.625C16.3 24.6875 15.8375 24.7 12.55 24.7C9.2625 24.7 8.8 24.7 7.55 24.625C6.72611 24.6404 5.90574 24.5136 5.125 24.25C4.60723 24.0351 4.13919 23.716 3.75 23.3125C3.33511 22.9109 3.01855 22.419 2.825 21.875C2.51982 21.1189 2.35055 20.3149 2.325 19.5C2.325 18.25 2.25 17.7875 2.25 14.5C2.25 11.2125 2.25 10.75 2.325 9.5C2.3306 8.68882 2.47869 7.88493 2.7625 7.125C2.98256 6.59739 3.32033 6.12707 3.75 5.75C4.12977 5.32021 4.59911 4.97887 5.125 4.75C5.88694 4.47505 6.69 4.33135 7.5 4.325C8.75 4.325 9.2125 4.25 12.5 4.25C15.7875 4.25 16.25 4.25 17.5 4.325C18.2935 4.3341 19.0796 4.47781 19.825 4.75C20.393 4.96082 20.9029 5.30356 21.3125 5.75C21.7221 6.13397 22.0422 6.60342 22.25 7.125C22.5278 7.88617 22.6716 8.68972 22.675 9.5C22.7375 10.75 22.75 11.2125 22.75 14.5C22.75 17.7875 22.7375 18.25 22.675 19.5ZM12.5 8.0875C11.2323 8.08997 9.9937 8.46816 8.94082 9.17427C7.88793 9.88039 7.06797 10.8827 6.58454 12.0547C6.10111 13.2266 5.9759 14.5156 6.22474 15.7587C6.47358 17.0017 7.0853 18.1432 7.98259 19.0387C8.87989 19.9343 10.0225 20.5438 11.2661 20.7902C12.5096 21.0366 13.7983 20.9089 14.9693 20.4232C16.1403 19.9375 17.1411 19.1155 17.8452 18.0613C18.5492 17.007 18.925 15.7677 18.925 14.5C18.9267 13.6564 18.7615 12.8208 18.439 12.0412C18.1166 11.2616 17.6432 10.5535 17.0461 9.95756C16.449 9.36161 15.7399 8.8896 14.9597 8.56866C14.1796 8.24773 13.3436 8.0842 12.5 8.0875ZM12.5 18.6625C11.6767 18.6625 10.872 18.4184 10.1874 17.961C9.50292 17.5036 8.9694 16.8535 8.65435 16.0929C8.3393 15.3323 8.25687 14.4954 8.41748 13.6879C8.57809 12.8805 8.97453 12.1388 9.55667 11.5567C10.1388 10.9745 10.8805 10.5781 11.6879 10.4175C12.4954 10.2569 13.3323 10.3393 14.0929 10.6544C14.8535 10.9694 15.5036 11.5029 15.961 12.1874C16.4184 12.872 16.6625 13.6767 16.6625 14.5C16.6625 15.0466 16.5548 15.5879 16.3456 16.0929C16.1365 16.5979 15.8299 17.0568 15.4433 17.4433C15.0568 17.8299 14.5979 18.1365 14.0929 18.3456C13.5879 18.5548 13.0466 18.6625 12.5 18.6625Z" fill="white"/>
</g>
<defs>
<filter id="filter0_d_195_1639" x="0" y="0.982" width="31.113" height="31.112" filterUnits="userSpaceOnUse" color-interpolation-filters="sRGB">
<feFlood flood-opacity="0" result="BackgroundImageFix"/>
<feColorMatrix in="SourceAlpha" type="matrix" values="0 0 0 0 0 0 0 0 0 0 0 0 0 0 0 0 0 0 127 0" result="hardAlpha"/>
<feOffset dx="3.057" dy="2.038"/>
<feGaussianBlur stdDeviation="1.528"/>
<feColorMatrix type="matrix" values="0 0 0 0 0 0 0 0 0 0 0 0 0 0 0 0 0 0 0.25 0"/>
<feBlend mode="normal" in2="BackgroundImageFix" result="effect1_dropShadow_195_1639"/>
<feBlend mode="normal" in="SourceGraphic" in2="effect1_dropShadow_195_1639" result="shape"/>
</filter>
</defs>
</svg>
