<svg width="117" height="117" viewBox="0 0 117 117" fill="none" xmlns="http://www.w3.org/2000/svg">
<path d="M84.6921 107.107C64.82 107.081 45.7693 99.1738 31.7176 85.1188C17.6659 71.0639 9.76038 52.0087 9.73462 32.132C9.73462 26.1925 12.0935 20.4962 16.2925 16.2963C20.4914 12.0964 26.1863 9.73695 32.1245 9.73695C33.3819 9.72737 34.6373 9.84151 35.8724 10.0777C37.0664 10.2545 38.2402 10.548 39.3769 10.9541C40.1763 11.2346 40.8887 11.7191 41.4436 12.3595C41.9985 12.9999 42.3766 13.774 42.5407 14.6054L49.209 43.8164C49.3887 44.6093 49.367 45.4346 49.146 46.217C48.9249 46.9994 48.5115 47.7139 47.9434 48.2955C47.3107 48.977 47.262 49.0257 41.2751 52.1416C46.0695 62.6617 54.4813 71.11 64.9792 75.9485C68.143 69.9116 68.1917 69.8629 68.8731 69.23C69.4545 68.6618 70.1689 68.2483 70.9511 68.0272C71.7333 67.8061 72.5584 67.7844 73.3511 67.9642L102.555 74.634C103.36 74.8208 104.104 75.2092 104.717 75.7628C105.33 76.3164 105.792 77.017 106.06 77.7986C106.471 78.9541 106.78 80.1433 106.985 81.3526C107.18 82.5761 107.278 83.8134 107.277 85.0526C107.187 90.9668 104.762 96.6053 100.53 100.737C96.299 104.869 90.6053 107.159 84.6921 107.107Z" fill="white"/>
</svg>
