<svg width="83" height="83" viewBox="0 0 83 83" fill="none" xmlns="http://www.w3.org/2000/svg">
<g filter="url(#filter0_i_195_1506)">
<path d="M41.5 0.5C18.8423 0.5 0.5 18.8423 0.5 41.5C0.5 64.1577 18.8423 82.5 41.5 82.5C64.1577 82.5 82.5 64.1577 82.5 41.5C82.5 18.8423 64.1577 0.5 41.5 0.5ZM41.5 77.2368C21.7393 77.2368 5.76316 61.2607 5.76316 41.5C5.76316 21.7393 21.7393 5.76316 41.5 5.76316C61.2607 5.76316 77.2368 21.7393 77.2368 41.5C77.2368 61.2607 61.2607 77.2368 41.5 77.2368ZM60.1513 44.1316C61.5998 44.1316 62.7829 42.9485 62.7829 41.5C62.7829 40.0515 61.5998 38.8684 60.1513 38.8684H22.8487C21.4002 38.8684 20.2171 40.0515 20.2171 41.5C20.2171 42.9485 21.4002 44.1316 22.8487 44.1316H60.1513ZM60.1513 56.9211C61.5998 56.9211 62.7829 55.738 62.7829 54.2895C62.7829 52.841 61.5998 51.6579 60.1513 51.6579H22.8487C21.4002 51.6579 20.2171 52.841 20.2171 54.2895C20.2171 55.738 21.4002 56.9211 22.8487 56.9211H60.1513ZM60.1513 31.3421C61.5998 31.3421 62.7829 30.159 62.7829 28.7105C62.7829 27.262 61.5998 26.0789 60.1513 26.0789H22.8487C21.4002 26.0789 20.2171 27.262 20.2171 28.7105C20.2171 30.159 21.4002 31.3421 22.8487 31.3421H60.1513Z" fill="white" stroke="white"/>
</g>
<defs>
<filter id="filter0_i_195_1506" x="0" y="0" width="83" height="84" filterUnits="userSpaceOnUse" color-interpolation-filters="sRGB">
<feFlood flood-opacity="0" result="BackgroundImageFix"/>
<feBlend mode="normal" in="SourceGraphic" in2="BackgroundImageFix" result="shape"/>
<feColorMatrix in="SourceAlpha" type="matrix" values="0 0 0 0 0 0 0 0 0 0 0 0 0 0 0 0 0 0 127 0" result="hardAlpha"/>
<feOffset dy="1"/>
<feGaussianBlur stdDeviation="0.5"/>
<feComposite in2="hardAlpha" operator="arithmetic" k2="-1" k3="1"/>
<feColorMatrix type="matrix" values="0 0 0 0 0 0 0 0 0 0 0 0 0 0 0 0 0 0 0.2 0"/>
<feBlend mode="normal" in2="shape" result="effect1_innerShadow_195_1506"/>
</filter>
</defs>
</svg>
