<svg width="68" height="88" viewBox="0 0 68 88" fill="none" xmlns="http://www.w3.org/2000/svg">
<g filter="url(#filter0_d_195_1500)">
<path d="M0.445537 69.8293C-2.30835 54.9693 8.35276 46.4052 14.6251 42.5048C2.14235 30.0265 7.84999 13.3421 14.6251 7.76577C22.5083 1.27743 36.6191 -1.66998 45.8325 9.47649C57.2095 23.2407 50.5749 37.0013 45.8325 42.5048C48.8922 45.181 59.4105 52.1375 60.9529 66.4363C62.8989 84.4771 3.8879 88.4046 0.445537 69.8293Z" fill="white"/>
<path d="M0.445537 69.8293C-2.30835 54.9693 8.35276 46.4052 14.6251 42.5048C2.14235 30.0265 7.84999 13.3421 14.6251 7.76577C22.5083 1.27743 36.6191 -1.66998 45.8325 9.47649C57.2095 23.2407 50.5749 37.0013 45.8325 42.5048C48.8922 45.181 59.4105 52.1375 60.9529 66.4363C62.8989 84.4771 3.8879 88.4046 0.445537 69.8293Z" fill="white"/>
</g>
<defs>
<filter id="filter0_d_195_1500" x="0" y="0.982" width="67.113" height="86.112" filterUnits="userSpaceOnUse" color-interpolation-filters="sRGB">
<feFlood flood-opacity="0" result="BackgroundImageFix"/>
<feColorMatrix in="SourceAlpha" type="matrix" values="0 0 0 0 0 0 0 0 0 0 0 0 0 0 0 0 0 0 127 0" result="hardAlpha"/>
<feOffset dx="3.057" dy="2.038"/>
<feGaussianBlur stdDeviation="1.528"/>
<feColorMatrix type="matrix" values="0 0 0 0 0 0 0 0 0 0 0 0 0 0 0 0 0 0 0.25 0"/>
<feBlend mode="normal" in2="BackgroundImageFix" result="effect1_dropShadow_195_1500"/>
<feBlend mode="normal" in="SourceGraphic" in2="effect1_dropShadow_195_1500" result="shape"/>
</filter>
</defs>
</svg>
