<svg width="68" height="68" viewBox="0 0 68 68" fill="none" xmlns="http://www.w3.org/2000/svg">
<g filter="url(#filter0_d_149_3513)">
<path d="M17 36C17 25.5066 25.5066 17 36 17V17C46.4934 17 55 25.5066 55 36V55H17V36Z" fill="#5f9552" shape-rendering="crispEdges"/>
<g filter="url(#filter1_i_149_3513)">
<path d="M44.7043 43.2848L41.3054 39.8958C42.402 38.4988 42.9971 36.7735 42.9948 34.9974C42.9948 33.4157 42.5258 31.8695 41.647 30.5543C40.7683 29.2391 39.5192 28.2141 38.0579 27.6088C36.5966 27.0035 34.9886 26.8451 33.4372 27.1537C31.8859 27.4623 30.4609 28.2239 29.3424 29.3424C28.2239 30.4609 27.4623 31.8859 27.1537 33.4372C26.8451 34.9886 27.0035 36.5966 27.6088 38.0579C28.2141 39.5192 29.2391 40.7683 30.5543 41.647C31.8695 42.5258 33.4157 42.9948 34.9974 42.9948C36.7735 42.9971 38.4988 42.402 39.8958 41.3054L43.2848 44.7043C43.3777 44.798 43.4883 44.8724 43.6101 44.9231C43.7319 44.9739 43.8626 45 43.9945 45C44.1265 45 44.2572 44.9739 44.379 44.9231C44.5008 44.8724 44.6114 44.798 44.7043 44.7043C44.798 44.6114 44.8724 44.5008 44.9231 44.379C44.9739 44.2572 45 44.1265 45 43.9945C45 43.8626 44.9739 43.7319 44.9231 43.6101C44.8724 43.4883 44.798 43.3777 44.7043 43.2848ZM28.9994 34.9974C28.9994 33.8111 29.3511 32.6515 30.0102 31.6651C30.6693 30.6787 31.6061 29.9099 32.7021 29.4559C33.7981 29.002 35.0041 28.8832 36.1676 29.1146C37.3311 29.346 38.3999 29.9173 39.2387 30.7562C40.0775 31.595 40.6488 32.6638 40.8802 33.8273C41.1117 34.9908 40.9929 36.1968 40.5389 37.2928C40.0849 38.3888 39.3162 39.3256 38.3298 39.9846C37.3434 40.6437 36.1837 40.9955 34.9974 40.9955C33.4066 40.9955 31.881 40.3636 30.7562 39.2387C29.6313 38.1138 28.9994 36.5882 28.9994 34.9974Z" fill="#5B5B70"/>
</g>
<path d="M41.637 39.8734L44.8803 43.1073C44.8804 43.1073 44.8804 43.1073 44.8805 43.1074C44.9975 43.2235 45.0905 43.3617 45.1539 43.5139C45.2173 43.6662 45.25 43.8296 45.25 43.9945C45.25 44.1595 45.2173 44.3228 45.1539 44.4751C45.0906 44.6271 44.9979 44.7651 44.8811 44.8811C44.7651 44.9979 44.6271 45.0906 44.4751 45.1539C44.3228 45.2173 44.1595 45.25 43.9945 45.25C43.8296 45.25 43.6662 45.2173 43.5139 45.1539C43.3617 45.0905 43.2235 44.9975 43.1074 44.8805C43.1073 44.8804 43.1073 44.8804 43.1073 44.8803L39.8734 41.637C38.4647 42.682 36.7551 43.247 34.9971 43.2448M41.637 39.8734L34.9974 42.9948M41.637 39.8734C42.682 38.4647 43.247 36.7551 43.2448 34.9971M41.637 39.8734L42.9948 34.9974M34.9971 43.2448L34.9974 42.9948M34.9971 43.2448C34.9972 43.2448 34.9973 43.2448 34.9974 43.2448V42.9948M34.9971 43.2448C33.366 43.2448 31.7716 42.7611 30.4154 41.8549C29.0591 40.9487 28.002 39.6606 27.3778 38.1536C26.7536 36.6466 26.5902 34.9883 26.9085 33.3884C27.2267 31.7886 28.0122 30.319 29.1656 29.1656C30.319 28.0122 31.7886 27.2267 33.3884 26.9085C34.9883 26.5902 36.6466 26.7536 38.1536 27.3778C39.6606 28.002 40.9487 29.0591 41.8549 30.4154C42.7611 31.7716 43.2448 33.366 43.2448 34.9971M34.9974 42.9948C33.4157 42.9948 31.8695 42.5258 30.5543 41.647C29.2391 40.7683 28.2141 39.5192 27.6088 38.0579C27.0035 36.5966 26.8451 34.9886 27.1537 33.4372C27.4623 31.8859 28.2239 30.4609 29.3424 29.3424C30.4609 28.2239 31.8859 27.4623 33.4372 27.1537C34.9886 26.8451 36.5966 27.0035 38.0579 27.6088C39.5192 28.2141 40.7683 29.2391 41.647 30.5543C42.5258 31.8695 42.9948 33.4157 42.9948 34.9974M43.2448 34.9971L42.9948 34.9974M43.2448 34.9971C43.2448 34.9972 43.2448 34.9973 43.2448 34.9974H42.9948M29.2494 34.9974C29.2494 33.8606 29.5865 32.7492 30.2181 31.804C30.8497 30.8587 31.7474 30.122 32.7977 29.6869C33.8481 29.2518 35.0038 29.138 36.1188 29.3598C37.2338 29.5816 38.258 30.129 39.0619 30.9329C39.8658 31.7368 40.4133 32.761 40.635 33.876C40.8568 34.991 40.743 36.1468 40.3079 37.1971C39.8729 38.2474 39.1361 39.1452 38.1909 39.7768C37.2456 40.4084 36.1343 40.7455 34.9974 40.7455C33.4729 40.7455 32.0109 40.1399 30.9329 39.0619C29.855 37.984 29.2494 36.5219 29.2494 34.9974Z" stroke="#5B5B70" stroke-width="0.5"/>
</g>
<defs>
<filter id="filter0_d_149_3513" x="0" y="0" width="68" height="68" filterUnits="userSpaceOnUse" color-interpolation-filters="sRGB">
<feFlood flood-opacity="0" result="BackgroundImageFix"/>
<feColorMatrix in="SourceAlpha" type="matrix" values="0 0 0 0 0 0 0 0 0 0 0 0 0 0 0 0 0 0 127 0" result="hardAlpha"/>
<feOffset dx="-2" dy="-2"/>
<feGaussianBlur stdDeviation="7.5"/>
<feComposite in2="hardAlpha" operator="out"/>
<feColorMatrix type="matrix" values="0 0 0 0 0 0 0 0 0 0 0 0 0 0 0 0 0 0 0.2 0"/>
<feBlend mode="normal" in2="BackgroundImageFix" result="effect1_dropShadow_149_3513"/>
<feBlend mode="normal" in="SourceGraphic" in2="effect1_dropShadow_149_3513" result="shape"/>
</filter>
<filter id="filter1_i_149_3513" x="26.5" y="24.5" width="19" height="21" filterUnits="userSpaceOnUse" color-interpolation-filters="sRGB">
<feFlood flood-opacity="0" result="BackgroundImageFix"/>
<feBlend mode="normal" in="SourceGraphic" in2="BackgroundImageFix" result="shape"/>
<feColorMatrix in="SourceAlpha" type="matrix" values="0 0 0 0 0 0 0 0 0 0 0 0 0 0 0 0 0 0 127 0" result="hardAlpha"/>
<feOffset dy="-2"/>
<feGaussianBlur stdDeviation="1"/>
<feComposite in2="hardAlpha" operator="arithmetic" k2="-1" k3="1"/>
<feColorMatrix type="matrix" values="0 0 0 0 0 0 0 0 0 0 0 0 0 0 0 0 0 0 0.25 0"/>
<feBlend mode="normal" in2="shape" result="effect1_innerShadow_149_3513"/>
</filter>
</defs>
</svg>
