<svg width="32" height="33" viewBox="0 0 32 33" fill="none" xmlns="http://www.w3.org/2000/svg">
<g filter="url(#filter0_d_195_1640)">
<path d="M12.5 27C19.4036 27 25 21.4036 25 14.5C25 7.59644 19.4036 2 12.5 2C5.59644 2 0 7.59644 0 14.5C0 21.4036 5.59644 27 12.5 27Z" fill="white"/>
<g filter="url(#filter1_i_195_1640)">
<path d="M20.1299 11.0328C19.5828 11.2748 19.0024 11.4334 18.4082 11.5034C19.0342 11.1297 19.5028 10.5415 19.7264 9.84854C19.138 10.197 18.4943 10.4425 17.8229 10.5743C17.5424 10.2757 17.2034 10.0378 16.8269 9.87534C16.4505 9.71288 16.0446 9.62934 15.6344 9.62989C13.9793 9.62989 12.6369 10.9697 12.6369 12.6216C12.6369 12.8561 12.6636 13.0843 12.715 13.3034C10.2238 13.1787 8.01495 11.9877 6.53643 10.1772C6.26982 10.6338 6.12971 11.1529 6.13048 11.6814C6.13048 12.7191 6.66005 13.6352 7.46392 14.1716C6.98788 14.1569 6.52231 14.0284 6.10633 13.797L6.10611 13.8349C6.10611 15.2845 7.13978 16.4935 8.51077 16.7682C8.25347 16.8382 7.98792 16.8736 7.72122 16.8732C7.52763 16.8732 7.34007 16.8547 7.15721 16.8199C7.53858 18.0082 8.64535 18.8732 9.95733 18.8975C8.89545 19.7294 7.58407 20.1804 6.2342 20.1782C5.99277 20.1782 5.75358 20.1642 5.51953 20.1363C6.88984 21.0156 8.48494 21.4823 10.114 21.4805C15.6275 21.4805 18.6427 16.9219 18.6427 12.9681C18.6427 12.8385 18.6398 12.7093 18.634 12.5812C19.221 12.1581 19.7277 11.6338 20.1299 11.0328Z" fill="#5B5B70"/>
</g>
</g>
<defs>
<filter id="filter0_d_195_1640" x="0" y="0.982" width="31.113" height="31.112" filterUnits="userSpaceOnUse" color-interpolation-filters="sRGB">
<feFlood flood-opacity="0" result="BackgroundImageFix"/>
<feColorMatrix in="SourceAlpha" type="matrix" values="0 0 0 0 0 0 0 0 0 0 0 0 0 0 0 0 0 0 127 0" result="hardAlpha"/>
<feOffset dx="3.057" dy="2.038"/>
<feGaussianBlur stdDeviation="1.528"/>
<feColorMatrix type="matrix" values="0 0 0 0 0 0 0 0 0 0 0 0 0 0 0 0 0 0 0.25 0"/>
<feBlend mode="normal" in2="BackgroundImageFix" result="effect1_dropShadow_195_1640"/>
<feBlend mode="normal" in="SourceGraphic" in2="effect1_dropShadow_195_1640" result="shape"/>
</filter>
<filter id="filter1_i_195_1640" x="5.51953" y="9.62988" width="14.6104" height="15.8507" filterUnits="userSpaceOnUse" color-interpolation-filters="sRGB">
<feFlood flood-opacity="0" result="BackgroundImageFix"/>
<feBlend mode="normal" in="SourceGraphic" in2="BackgroundImageFix" result="shape"/>
<feColorMatrix in="SourceAlpha" type="matrix" values="0 0 0 0 0 0 0 0 0 0 0 0 0 0 0 0 0 0 127 0" result="hardAlpha"/>
<feOffset dy="4"/>
<feGaussianBlur stdDeviation="2"/>
<feComposite in2="hardAlpha" operator="arithmetic" k2="-1" k3="1"/>
<feColorMatrix type="matrix" values="0 0 0 0 0 0 0 0 0 0 0 0 0 0 0 0 0 0 0.25 0"/>
<feBlend mode="normal" in2="shape" result="effect1_innerShadow_195_1640"/>
</filter>
</defs>
</svg>
