<svg width="79" height="78" viewBox="0 0 79 78" fill="none" xmlns="http://www.w3.org/2000/svg">
<path d="M39.5 0C44.6872 0 49.8236 1.00876 54.616 2.9687C59.4084 4.92863 63.7628 7.80135 67.4307 11.4228C71.0986 15.0443 74.0082 19.3436 75.9932 24.0753C77.9783 28.807 79 33.8785 79 39C79 49.3434 74.8384 59.2632 67.4307 66.5772C60.023 73.8911 49.976 78 39.5 78C29.0239 78 18.977 73.8911 11.5693 66.5772C4.1616 59.2632 7.66723e-07 49.3434 0 39C-3.06689e-07 28.6566 4.16159 18.7368 11.5693 11.4228C18.977 4.10892 29.0239 4.54211e-07 39.5 0Z" fill="#5f9552"/>
</svg>
