<svg width="39" height="39" viewBox="0 0 39 39" fill="none" xmlns="http://www.w3.org/2000/svg">
<path d="M19.032 0C15.2678 0 11.5882 1.11646 8.45837 3.20821C5.32858 5.29995 2.88921 8.27303 1.44873 11.7515C0.00824625 15.2299 -0.36865 19.0575 0.365702 22.7502C1.10005 26.4429 2.91267 29.8348 5.57434 32.4971C8.236 35.1594 11.6272 36.9724 15.319 37.707C19.0108 38.4415 22.8375 38.0645 26.3152 36.6237C29.7928 35.1829 32.7652 32.7429 34.8564 29.6124C36.9477 26.4819 38.0639 22.8014 38.0639 19.0364C38.0582 13.9894 36.0512 9.15071 32.4833 5.58193C28.9153 2.01316 24.0778 0.00571234 19.032 0ZM22.9588 28.0889C21.7233 29.3247 20.0476 30.0189 18.3004 30.0189C16.5532 30.0189 14.8775 29.3247 13.642 28.0889C13.5061 27.9529 13.3982 27.7915 13.3247 27.6138C13.2511 27.4361 13.2132 27.2457 13.2132 27.0534C13.2132 26.8611 13.2511 26.6707 13.3247 26.493C13.3982 26.3153 13.5061 26.1539 13.642 26.0179C13.9166 25.7433 14.289 25.589 14.6773 25.589C14.8696 25.589 15.06 25.6268 15.2376 25.7004C15.4152 25.774 15.5766 25.8819 15.7126 26.0179C16.1382 26.4436 16.6622 26.7577 17.2381 26.9325C17.8141 27.1072 18.4242 27.1372 19.0146 27.0197C19.6049 26.9023 20.1571 26.641 20.6224 26.2591C21.0876 25.8772 21.4515 25.3864 21.6818 24.8302C21.9122 24.274 22.0018 23.6696 21.9428 23.0705C21.8838 22.4714 21.678 21.896 21.3436 21.3955C21.0092 20.8949 20.5566 20.4846 20.0258 20.2008C19.495 19.917 18.9024 19.7685 18.3005 19.7685C18.0327 19.7686 17.77 19.6951 17.5411 19.5562C17.3121 19.4172 17.1256 19.2181 17.002 18.9806C16.8783 18.743 16.8221 18.476 16.8396 18.2087C16.857 17.9414 16.9474 17.6841 17.101 17.4646L20.6123 12.4454H14.6394C14.2512 12.4454 13.8788 12.2912 13.6042 12.0165C13.3297 11.7419 13.1754 11.3695 13.1754 10.9811C13.1754 10.5927 13.3297 10.2203 13.6042 9.94565C13.8788 9.67104 14.2512 9.51676 14.6394 9.51676H23.4234C23.6912 9.51675 23.9539 9.59021 24.1828 9.72915C24.4118 9.86808 24.5982 10.0672 24.7219 10.3047C24.8456 10.5423 24.9018 10.8093 24.8843 11.0766C24.8669 11.3439 24.7765 11.6012 24.6229 11.8207L20.7765 17.3191C21.7844 17.7284 22.6754 18.3808 23.3699 19.2182C24.0645 20.0556 24.5411 21.0519 24.7571 22.1183C24.9732 23.1846 24.9221 24.2879 24.6083 25.3297C24.2945 26.3715 23.7278 27.3194 22.9588 28.0889Z" fill="#5f9552"/>
</svg>
