<svg width="39" height="39" viewBox="0 0 39 39" fill="none" xmlns="http://www.w3.org/2000/svg">
<path d="M19.032 0C15.2678 0 11.5882 1.11646 8.45837 3.20821C5.32858 5.29995 2.88921 8.27303 1.44873 11.7515C0.00824616 15.2299 -0.36865 19.0575 0.365702 22.7502C1.10005 26.4429 2.91267 29.8348 5.57434 32.4971C8.236 35.1594 11.6272 36.9724 15.319 37.707C19.0108 38.4415 22.8375 38.0645 26.3152 36.6237C29.7928 35.1829 32.7652 32.7429 34.8564 29.6124C36.9477 26.4819 38.0639 22.8014 38.0639 19.0364C38.0582 13.9894 36.0512 9.15071 32.4833 5.58193C28.9153 2.01316 24.0778 0.00571234 19.032 0ZM23.4239 26.357C23.8122 26.357 24.1846 26.5113 24.4591 26.7859C24.7337 27.0605 24.8879 27.433 24.8879 27.8213C24.8879 28.2097 24.7337 28.5821 24.4591 28.8568C24.1846 29.1314 23.8122 29.2857 23.4239 29.2857H14.698C14.6786 29.2864 14.6591 29.2869 14.6398 29.2869C14.3654 29.2868 14.0965 29.2095 13.8639 29.064C13.6313 28.9184 13.4442 28.7104 13.324 28.4637C13.2038 28.217 13.1553 27.9414 13.184 27.6685C13.2128 27.3955 13.3176 27.1361 13.4866 26.9199L21.4787 16.253C21.7022 15.9128 21.8524 15.5298 21.9197 15.1283C21.9869 14.7268 21.9698 14.3157 21.8694 13.9212C21.7689 13.5267 21.5874 13.1574 21.3363 12.837C21.0852 12.5166 20.7701 12.2521 20.4112 12.0603C20.0522 11.8684 19.6572 11.7536 19.2513 11.723C18.8455 11.6924 18.4377 11.7467 18.054 11.8826C17.6703 12.0184 17.3192 12.2327 17.0229 12.5119C16.7267 12.791 16.4918 13.1288 16.3334 13.5038C16.2585 13.6809 16.1495 13.8416 16.0126 13.9765C15.8756 14.1115 15.7134 14.2182 15.5353 14.2904C15.3571 14.3627 15.1664 14.3992 14.9742 14.3977C14.7819 14.3963 14.5919 14.357 14.4148 14.2821C14.2377 14.2072 14.0771 14.0981 13.9422 13.9612C13.8073 13.8242 13.7006 13.662 13.6284 13.4838C13.5561 13.3056 13.5197 13.1149 13.5211 12.9226C13.5225 12.7303 13.5618 12.5401 13.6367 12.363C13.9547 11.6105 14.4266 10.9329 15.022 10.3736C15.6174 9.81437 16.3232 9.38586 17.094 9.11564C17.8649 8.84542 18.6837 8.73946 19.4979 8.80455C20.3121 8.86965 21.1036 9.10437 21.8218 9.49363C22.5399 9.8829 23.1686 10.4181 23.6677 11.0649C24.1667 11.7116 24.525 12.4556 24.7195 13.2491C24.914 14.0426 24.9404 14.868 24.797 15.6723C24.6536 16.4766 24.3437 17.242 23.887 17.9194C23.8736 17.9392 23.8598 17.9587 23.8453 17.9778L17.5674 26.357L23.4239 26.357Z" fill="#95C180"/>
</svg>
